<?xml version="1.0" encoding="UTF-8" standalone="no"?>
<svg width="1024" height="1024" viewBox="0 0 270.93333 270.93332" xmlns="http://www.w3.org/2000/svg">
    <g transform="translate(-41.580053,-91.524707)">
        <path style="fill:#000000;fill-opacity:1;stroke-width:1.70387"
            d="m 247.27543,314.70152 c -6.10955,-6.70519 -16.14364,-12.9409 -13.93299,-23.42798 2.12389,-20.22967 4.00106,-40.51893 3.43613,-60.89302 0.32828,-23.84505 -0.7151,-47.80644 -4.67234,-71.32308 -21.29031,23.99166 -31.12328,55.278 -42.21767,84.73199 -3.89541,12.27935 -21.71766,7.83903 -21.86694,-4.43985 -6.30241,-22.41752 -15.57712,-44.12149 -29.46365,-62.93722 -3.96932,-3.43831 -12.49125,-22.4167 -14.54817,-9.93684 -7.96323,36.33701 -8.31833,73.85796 -6.24645,110.84721 2.19408,10.98054 -3.58307,20.65309 -14.39585,23.75435 -7.691633,1.63664 -18.686185,16.40367 -24.689738,6.4484 -5.549778,-6.39186 -6.386914,-14.77824 3.524397,-16.80023 3.650034,-4.06414 14.883155,-3.99688 13.428515,-10.68708 -0.363081,-6.16925 -0.502499,-12.34844 -0.722494,-18.52376 -6.011978,0.12421 -20.194572,9.14755 -21.048961,0.29803 4.558972,-3.34862 14.481259,-4.72681 17.663382,-6.27314 -5.30158,-0.36703 -12.065997,2.00733 -16.203654,-1.67557 2.654494,-5.22286 11.415092,-2.80527 16.759698,-3.75272 5.21548,0.98551 2.118507,-6.2941 3.203468,-9.41871 1.362186,-31.92446 2.830394,-64.401 12.138507,-95.17623 1.6606,-12.81687 17.56784,-17.5421 25.47531,-6.99678 20.47568,20.4649 38.19519,44.34874 47.58582,71.98892 4.61856,-4.03449 7.71667,-17.72071 12.32719,-24.95391 9.91397,-19.20957 21.02511,-38.64633 37.33735,-53.16525 7.54853,-8.78842 20.64347,-3.59999 20.62749,7.78422 8.57544,35.65229 6.90072,72.55248 7.54692,108.94394 6.47271,0.53048 13.50356,-0.74591 19.53337,1.55892 -0.40011,6.92584 -15.88203,1.54318 -17.9692,4.29818 5.80571,3.1568 22.13502,1.93763 20.18934,10.35691 -7.79577,3.09455 -24.35445,-11.17611 -22.65057,3.17853 1.34495,11.08 -7.66567,25.29061 3.96573,32.80224 7.93679,6.06024 16.23111,15.77249 3.76586,22.34018 -6.35101,7.76687 -12.98193,-5.80286 -17.8798,-8.95065 z m -36.07374,-34.0964 c -9.58671,-2.83824 -11.53728,-17.20921 -2.66126,-22.20068 9.07411,-6.48726 22.3771,4.08888 18.20146,14.33921 -1.92914,6.54286 -9.18288,9.79938 -15.5402,7.86147 z m -75.26977,-2.55526 c -11.469,-1.7362 -13.22099,-19.59021 -2.32646,-23.45757 10.02949,-4.7738 21.46818,7.15397 15.81668,16.84718 -2.45128,4.77109 -8.13415,7.97894 -13.49022,6.61039 z" />
    </g>
</svg>